<mxfile host="app.diagrams.net" modified="2024-04-11T09:24:36.505Z" agent="Mozilla/5.0 (Windows NT 10.0; Win64; x64) AppleWebKit/537.36 (KHTML, like Gecko) Chrome/119.0.0.0 Safari/537.36" etag="rtqk29e6X06gBucdcsjQ" version="24.2.3" type="device">
  <diagram name="PÃ¡gina-1" id="5lv9d8EFJz7diGP7I59u">
    <mxGraphModel dx="1717" dy="798" grid="1" gridSize="10" guides="1" tooltips="1" connect="1" arrows="1" fold="1" page="1" pageScale="1" pageWidth="827" pageHeight="1169" math="0" shadow="0">
      <root>
        <mxCell id="0" />
        <mxCell id="1" parent="0" />
        <mxCell id="N5f9MsCCNzsGHuerO8Mj-4" style="edgeStyle=orthogonalEdgeStyle;rounded=0;orthogonalLoop=1;jettySize=auto;html=1;endArrow=none;endFill=0;" edge="1" parent="1" source="N5f9MsCCNzsGHuerO8Mj-1" target="N5f9MsCCNzsGHuerO8Mj-3">
          <mxGeometry relative="1" as="geometry" />
        </mxCell>
        <mxCell id="N5f9MsCCNzsGHuerO8Mj-13" style="edgeStyle=orthogonalEdgeStyle;rounded=0;orthogonalLoop=1;jettySize=auto;html=1;entryX=0.5;entryY=0;entryDx=0;entryDy=0;endArrow=none;endFill=0;" edge="1" parent="1" source="N5f9MsCCNzsGHuerO8Mj-1" target="N5f9MsCCNzsGHuerO8Mj-11">
          <mxGeometry relative="1" as="geometry" />
        </mxCell>
        <mxCell id="N5f9MsCCNzsGHuerO8Mj-1" value="Alumno" style="rounded=0;whiteSpace=wrap;html=1;" vertex="1" parent="1">
          <mxGeometry x="110" y="90" width="120" height="60" as="geometry" />
        </mxCell>
        <mxCell id="N5f9MsCCNzsGHuerO8Mj-2" value="Centro" style="rounded=0;whiteSpace=wrap;html=1;" vertex="1" parent="1">
          <mxGeometry x="560" y="90" width="120" height="60" as="geometry" />
        </mxCell>
        <mxCell id="N5f9MsCCNzsGHuerO8Mj-5" style="edgeStyle=orthogonalEdgeStyle;rounded=0;orthogonalLoop=1;jettySize=auto;html=1;entryX=0;entryY=0.5;entryDx=0;entryDy=0;endArrow=none;endFill=0;" edge="1" parent="1" source="N5f9MsCCNzsGHuerO8Mj-3" target="N5f9MsCCNzsGHuerO8Mj-2">
          <mxGeometry relative="1" as="geometry" />
        </mxCell>
        <mxCell id="N5f9MsCCNzsGHuerO8Mj-3" value="PERTENECE" style="rhombus;whiteSpace=wrap;html=1;" vertex="1" parent="1">
          <mxGeometry x="330" y="80" width="130" height="80" as="geometry" />
        </mxCell>
        <mxCell id="N5f9MsCCNzsGHuerO8Mj-6" value="1.1" style="text;html=1;align=center;verticalAlign=middle;resizable=0;points=[];autosize=1;strokeColor=none;fillColor=none;" vertex="1" parent="1">
          <mxGeometry x="230" y="90" width="40" height="30" as="geometry" />
        </mxCell>
        <mxCell id="N5f9MsCCNzsGHuerO8Mj-7" value="1.N" style="text;html=1;align=center;verticalAlign=middle;resizable=0;points=[];autosize=1;strokeColor=none;fillColor=none;" vertex="1" parent="1">
          <mxGeometry x="520" y="90" width="40" height="30" as="geometry" />
        </mxCell>
        <mxCell id="N5f9MsCCNzsGHuerO8Mj-8" value="(1,N)" style="text;html=1;align=center;verticalAlign=middle;resizable=0;points=[];autosize=1;strokeColor=none;fillColor=none;rotation=0;" vertex="1" parent="1">
          <mxGeometry x="370" y="50" width="50" height="30" as="geometry" />
        </mxCell>
        <mxCell id="N5f9MsCCNzsGHuerO8Mj-15" style="edgeStyle=orthogonalEdgeStyle;rounded=0;orthogonalLoop=1;jettySize=auto;html=1;entryX=0.5;entryY=0;entryDx=0;entryDy=0;endArrow=none;endFill=0;" edge="1" parent="1" source="N5f9MsCCNzsGHuerO8Mj-9" target="N5f9MsCCNzsGHuerO8Mj-12">
          <mxGeometry relative="1" as="geometry" />
        </mxCell>
        <mxCell id="N5f9MsCCNzsGHuerO8Mj-9" value="Practicas" style="rounded=0;whiteSpace=wrap;html=1;" vertex="1" parent="1">
          <mxGeometry x="110" y="370" width="120" height="60" as="geometry" />
        </mxCell>
        <mxCell id="N5f9MsCCNzsGHuerO8Mj-10" value="Empresa" style="rounded=0;whiteSpace=wrap;html=1;" vertex="1" parent="1">
          <mxGeometry x="110" y="630" width="120" height="60" as="geometry" />
        </mxCell>
        <mxCell id="N5f9MsCCNzsGHuerO8Mj-14" style="edgeStyle=orthogonalEdgeStyle;rounded=0;orthogonalLoop=1;jettySize=auto;html=1;entryX=0.5;entryY=0;entryDx=0;entryDy=0;endArrow=none;endFill=0;" edge="1" parent="1" source="N5f9MsCCNzsGHuerO8Mj-11" target="N5f9MsCCNzsGHuerO8Mj-9">
          <mxGeometry relative="1" as="geometry" />
        </mxCell>
        <mxCell id="N5f9MsCCNzsGHuerO8Mj-11" value="Solicita" style="rhombus;whiteSpace=wrap;html=1;" vertex="1" parent="1">
          <mxGeometry x="120" y="220" width="100" height="80" as="geometry" />
        </mxCell>
        <mxCell id="N5f9MsCCNzsGHuerO8Mj-16" style="edgeStyle=orthogonalEdgeStyle;rounded=0;orthogonalLoop=1;jettySize=auto;html=1;entryX=0.5;entryY=0;entryDx=0;entryDy=0;endArrow=none;endFill=0;" edge="1" parent="1" source="N5f9MsCCNzsGHuerO8Mj-12" target="N5f9MsCCNzsGHuerO8Mj-10">
          <mxGeometry relative="1" as="geometry" />
        </mxCell>
        <mxCell id="N5f9MsCCNzsGHuerO8Mj-12" value="Pertenece" style="rhombus;whiteSpace=wrap;html=1;" vertex="1" parent="1">
          <mxGeometry x="120" y="490" width="100" height="80" as="geometry" />
        </mxCell>
        <mxCell id="N5f9MsCCNzsGHuerO8Mj-19" value="1.N" style="text;html=1;align=center;verticalAlign=middle;resizable=0;points=[];autosize=1;strokeColor=none;fillColor=none;" vertex="1" parent="1">
          <mxGeometry x="165" y="150" width="40" height="30" as="geometry" />
        </mxCell>
        <mxCell id="N5f9MsCCNzsGHuerO8Mj-20" value="1.N" style="text;html=1;align=center;verticalAlign=middle;whiteSpace=wrap;rounded=0;" vertex="1" parent="1">
          <mxGeometry x="110" y="340" width="60" height="30" as="geometry" />
        </mxCell>
        <mxCell id="N5f9MsCCNzsGHuerO8Mj-21" value="(N,M)" style="text;html=1;align=center;verticalAlign=middle;resizable=0;points=[];autosize=1;strokeColor=none;fillColor=none;" vertex="1" parent="1">
          <mxGeometry x="220" y="245" width="50" height="30" as="geometry" />
        </mxCell>
        <mxCell id="N5f9MsCCNzsGHuerO8Mj-22" value="1.1" style="text;html=1;align=center;verticalAlign=middle;resizable=0;points=[];autosize=1;strokeColor=none;fillColor=none;" vertex="1" parent="1">
          <mxGeometry x="170" y="600" width="40" height="30" as="geometry" />
        </mxCell>
        <mxCell id="N5f9MsCCNzsGHuerO8Mj-23" value="1.N" style="text;html=1;align=center;verticalAlign=middle;resizable=0;points=[];autosize=1;strokeColor=none;fillColor=none;" vertex="1" parent="1">
          <mxGeometry x="165" y="430" width="40" height="30" as="geometry" />
        </mxCell>
        <mxCell id="N5f9MsCCNzsGHuerO8Mj-24" value="(1,N)" style="text;html=1;align=center;verticalAlign=middle;resizable=0;points=[];autosize=1;strokeColor=none;fillColor=none;" vertex="1" parent="1">
          <mxGeometry x="220" y="515" width="50" height="30" as="geometry" />
        </mxCell>
      </root>
    </mxGraphModel>
  </diagram>
</mxfile>
